# xmcd CD database file
# Copyright (C) 1993-1996 Ti Kan
#
# Track frame offsets:
# 150
# 14812
# 26580
# 39155
# 49547
# 60242
# 70927
# 83182
# 99782
# 109382
# 120685
# 129905
# 143082
# 153490
#
# Disc length: 2169 seconds
#
# Revision: 0
# Processed by: cddbd v1.4b41PL1 Copyright (c) Steve Scherf et al.
# Submitted via: inCDius 1.1b5
#
DISCID=af08770e
DTITLE=Jeannie Seely - Greatest Hits On Monument
DYEAR=1900
DGENRE=
TTITLE0=Don't Touch Me
TTITLE1=When It's Over
TTITLE2=I'll Love You More (Than You Need)
TTITLE3=Everthing I Had Going For Me (Is Gone)
TTITLE4=Darling  Are You Ever Coming Home
TTITLE5=A Wanderin' Man
TTITLE6=These Memories
TTITLE7=It's Only Love 
TTITLE8=It Just Takes Practice
TTITLE9=Your Way, My Way
TTITLE10=You Changed Everthing About Me
TTITLE11=Don't You Ever Get Tired
TTITLE12=Welcome Home To Nothing
TTITLE13=How Is He
EXTD=
EXTT0=
EXTT1=
EXTT2=
EXTT3=
EXTT4=
EXTT5=
EXTT6=
EXTT7=
EXTT8=
EXTT9=
EXTT10=
EXTT11=
EXTT12=
EXTT13=
PLAYORDER=
